<?xml version="1.0" encoding="UTF-8"?>
<svg xmlns="http://www.w3.org/2000/svg" xmlns:xlink="http://www.w3.org/1999/xlink" viewBox="0 0 35 35" width="35px" height="35px">
<g id="surface34023440">
<path style=" stroke:none;fill-rule:nonzero;fill:rgb(100%,100%,100%);fill-opacity:1;" d="M 17.5 2.101562 C 15.460938 2.101562 13.597656 3.234375 12.671875 5.046875 L 12.671875 5.050781 C 12.671875 5.050781 12.667969 5.050781 12.667969 5.050781 C 10.054688 10.128906 7.808594 14.566406 6.167969 17.875 C 5.347656 19.53125 4.679688 20.90625 4.191406 21.945312 C 3.703125 22.984375 3.417969 23.582031 3.253906 24.113281 L 3.253906 24.117188 L 3.25 24.117188 C 3.070312 24.699219 2.835938 25.480469 2.835938 26.398438 C 2.835938 29.972656 5.773438 32.898438 9.351562 32.898438 C 13.410156 32.898438 16.195312 29.664062 17.5 28.171875 C 18.804688 29.664062 21.589844 32.898438 25.648438 32.898438 C 29.226562 32.898438 32.164062 29.972656 32.164062 26.398438 C 32.164062 25.480469 31.929688 24.703125 31.75 24.125 L 31.75 24.121094 L 31.746094 24.117188 C 31.582031 23.585938 31.296875 22.988281 30.808594 21.949219 C 30.320312 20.910156 29.652344 19.535156 28.832031 17.878906 C 27.191406 14.566406 24.945312 10.128906 22.332031 5.050781 L 22.328125 5.046875 C 21.402344 3.234375 19.535156 2.101562 17.5 2.101562 Z M 17.5 4.898438 C 18.550781 4.898438 19.363281 5.398438 19.835938 6.324219 L 19.839844 6.324219 L 19.839844 6.328125 C 22.449219 11.398438 24.691406 15.828125 26.320312 19.117188 C 27.136719 20.765625 27.800781 22.128906 28.273438 23.140625 C 28.75 24.152344 29.0625 24.914062 29.074219 24.949219 C 29.238281 25.476562 29.363281 26 29.363281 26.398438 C 29.363281 28.449219 27.710938 30.101562 25.648438 30.101562 C 23.140625 30.101562 20.503906 27.386719 19.300781 26.027344 L 19.300781 26.023438 L 19.296875 26.019531 C 20.589844 24.410156 22.75 21.570312 22.75 18.398438 C 22.75 15.570312 20.351562 13.300781 17.5 13.300781 C 14.648438 13.300781 12.25 15.570312 12.25 18.398438 C 12.25 21.574219 14.410156 24.414062 15.703125 26.019531 L 15.699219 26.023438 L 15.699219 26.027344 C 14.496094 27.386719 11.859375 30.101562 9.351562 30.101562 C 7.289062 30.101562 5.636719 28.449219 5.636719 26.398438 C 5.636719 25.996094 5.761719 25.476562 5.925781 24.949219 C 5.933594 24.917969 6.25 24.148438 6.726562 23.136719 C 7.203125 22.125 7.863281 20.761719 8.679688 19.117188 C 10.308594 15.824219 12.546875 11.398438 15.160156 6.332031 L 15.160156 6.328125 L 15.164062 6.324219 C 15.636719 5.398438 16.449219 4.898438 17.5 4.898438 Z M 17.5 16.101562 C 18.894531 16.101562 19.949219 17.148438 19.949219 18.398438 C 19.949219 19.898438 18.605469 22.140625 17.5 23.660156 C 16.394531 22.144531 15.050781 19.90625 15.050781 18.398438 C 15.050781 17.148438 16.105469 16.101562 17.5 16.101562 Z M 17.5 16.101562 "/>
</g>
</svg>
